<svg xmlns="http://www.w3.org/2000/svg" width="1200" height="630" viewBox="0 0 1200 630" role="img" aria-labelledby="title desc">
  <title id="title">Gem Merchant - 多人线上宝石商人</title>
  <desc id="desc">微信分享卡片图，展示 Gem Merchant 的宝石标识和多人线上桌游定位。</desc>
  <defs>
    <linearGradient id="bg" x1="0" y1="0" x2="1" y2="1">
      <stop offset="0" stop-color="#244238" />
      <stop offset=".58" stop-color="#2f5548" />
      <stop offset="1" stop-color="#d9a33f" />
    </linearGradient>
    <linearGradient id="gem" x1="0" y1="0" x2="1" y2="1">
      <stop offset="0" stop-color="#ffe9a8" />
      <stop offset=".48" stop-color="#d9a33f" />
      <stop offset="1" stop-color="#ad7228" />
    </linearGradient>
    <filter id="shadow" x="-20%" y="-20%" width="140%" height="140%">
      <feDropShadow dx="0" dy="18" stdDeviation="18" flood-color="#10221d" flood-opacity=".28" />
    </filter>
  </defs>
  <rect width="1200" height="630" fill="url(#bg)" />
  <path d="M0 486c166-58 287-70 428-38 113 25 204 82 337 84 158 2 250-75 435-101v199H0Z" fill="#fff7e8" opacity=".16" />
  <path d="M944 0h256v229c-80-23-143-60-188-111C977 79 955 39 944 0Z" fill="#fff7e8" opacity=".12" />
  <g transform="translate(775 132)" filter="url(#shadow)">
    <rect width="250" height="250" rx="46" fill="#244238" opacity=".28" />
    <path fill="url(#gem)" d="M125 28 203 92 172 218H78L47 92 125 28Z" />
    <path fill="#fff7e8" d="M125 28 151 92h-52l26-64ZM51 96h55L78 210 51 96Zm94 0h55l-28 114-27-114Z" opacity=".78" />
  </g>
  <g transform="translate(112 122)">
    <text x="0" y="0" fill="#fff7e8" font-family="Inter, 'Noto Sans SC', 'Microsoft YaHei', sans-serif" font-size="72" font-weight="800">Gem Merchant</text>
    <text x="0" y="92" fill="#ffe9a8" font-family="Inter, 'Noto Sans SC', 'Microsoft YaHei', sans-serif" font-size="46" font-weight="700">多人线上宝石商人</text>
    <text x="0" y="178" fill="#fff7e8" font-family="Inter, 'Noto Sans SC', 'Microsoft YaHei', sans-serif" font-size="30" font-weight="500" opacity=".94">创建房间 · 分享房间码 · 手机和桌面实时开局</text>
    <g transform="translate(0 254)">
      <circle cx="24" cy="24" r="24" fill="#f2f0df" />
      <circle cx="92" cy="24" r="24" fill="#4f83c2" />
      <circle cx="160" cy="24" r="24" fill="#4d9b63" />
      <circle cx="228" cy="24" r="24" fill="#cf5b4c" />
      <circle cx="296" cy="24" r="24" fill="#2d302f" />
      <circle cx="364" cy="24" r="24" fill="#d9a33f" />
    </g>
  </g>
</svg>
